<svg xmlns="http://www.w3.org/2000/svg" viewBox="0 0 600 400" fill="none">
  <defs>
    <linearGradient id="bg" x1="0" y1="0" x2="1" y2="1">
      <stop offset="0" stop-color="#f97316"/><stop offset="1" stop-color="#eab308"/>
    </linearGradient>
  </defs>
  <rect width="600" height="400" fill="url(#bg)"/>
  <g transform="translate(220,80)">
    <path d="M80 0 C120 0 150 30 150 70 C150 110 120 140 80 160 C40 140 10 110 10 70 C10 30 40 0 80 0 Z" fill="#fbbf24" stroke="#fff" stroke-width="3"/>
    <path d="M40 60 L20 60 L20 90 C20 100 30 110 40 110" stroke="#fff" stroke-width="4" fill="none"/>
    <path d="M120 60 L140 60 L140 90 C140 100 130 110 120 110" stroke="#fff" stroke-width="4" fill="none"/>
    <text x="80" y="100" text-anchor="middle" font-family="Pretendard,sans-serif" font-size="40" font-weight="900" fill="#fff">★</text>
    <rect x="60" y="170" width="40" height="20" fill="#92400e"/>
    <rect x="40" y="190" width="80" height="15" fill="#92400e"/>
  </g>
  <text x="300" y="340" text-anchor="middle" font-family="Pretendard,sans-serif" font-size="28" font-weight="900" fill="#fff">PROGRAMMING CONTEST</text>
  <text x="300" y="365" text-anchor="middle" font-family="Pretendard,sans-serif" font-size="12" font-weight="700" fill="#fff" opacity="0.9">KOI · USACO · 알고리즘</text>
</svg>
